<?xml version="1.0" encoding="utf-8"?>
<!-- Generator: Adobe Illustrator 23.0.2, SVG Export Plug-In . SVG Version: 6.00 Build 0)  -->
<svg version="1.1"
	 id="Layer_1" xmlns:cc="http://creativecommons.org/ns#" xmlns:dc="http://purl.org/dc/elements/1.1/" xmlns:rdf="http://www.w3.org/1999/02/22-rdf-syntax-ns#"
	 xmlns="http://www.w3.org/2000/svg" xmlns:xlink="http://www.w3.org/1999/xlink" x="0px" y="0px" viewBox="0 0 24 24"
	 enable-background="new 0 0 24 24" xml:space="preserve">
<g transform="translate(0 -1028.4)">
	<g>
		<linearGradient id="SVGID_1_" gradientUnits="userSpaceOnUse" x1="12" y1="1030.4633" x2="12" y2="1035.715">
			<stop  offset="0" style="stop-color:#4394D1"/>
			<stop  offset="0.247" style="stop-color:#4292CE"/>
			<stop  offset="0.4521" style="stop-color:#3F8AC3"/>
			<stop  offset="0.6422" style="stop-color:#397EB2"/>
			<stop  offset="0.8222" style="stop-color:#316D9A"/>
			<stop  offset="0.9954" style="stop-color:#27587B"/>
			<stop  offset="1" style="stop-color:#27577A"/>
		</linearGradient>
		<path fill="url(#SVGID_1_)" d="M2,1030.5c-1.1,0-2,0.9-2,2v14c0,1.1,0.9,2,2,2h11h7h2c1.1,0,2-0.9,2-2v-9v-3c0-1.1-0.9-2-2-2h-2
			h-7h-2.1c-1.9,0-2.3-2-4.6-2H2z"/>
		<linearGradient id="SVGID_2_" gradientUnits="userSpaceOnUse" x1="12" y1="1050.6334" x2="12" y2="1042.4573">
			<stop  offset="0" style="stop-color:#5AA6DD"/>
			<stop  offset="0.2434" style="stop-color:#5FAFE9"/>
			<stop  offset="0.5862" style="stop-color:#64B6F4"/>
			<stop  offset="1" style="stop-color:#65B8F7"/>
		</linearGradient>
		<path fill="url(#SVGID_2_)" d="M22,1033.9H2c-1.1,0-2,0.9-2,2v5.5v1v5.2v1c0,1.1,0.9,2,2,2h20c1.1,0,2-0.9,2-2v-1v-5.2v-1v-5.5
			C24,1034.8,23.1,1033.9,22,1033.9z"/>
	</g>
	<linearGradient id="SVGID_3_" gradientUnits="userSpaceOnUse" x1="12" y1="1036.2495" x2="12" y2="1048.2496">
		<stop  offset="0.7066" style="stop-color:#3E89C2"/>
		<stop  offset="0.884" style="stop-color:#3D88C0"/>
		<stop  offset="0.9683" style="stop-color:#3B83B8"/>
		<stop  offset="1" style="stop-color:#3A7FB3"/>
	</linearGradient>
	<path fill="url(#SVGID_3_)" d="M6,1039.7c0-0.8,0.7-1.5,1.5-1.5c0.8,0,1.5,0.7,1.5,1.5s-0.7,1.5-1.5,1.5
		C6.7,1041.2,6,1040.6,6,1039.7z M20,1037.4v9.5c0,0.7-0.4,1.3-1.3,1.3H18h-1H5.3c-0.7,0-1.3-0.5-1.3-1.3v-9.5
		c0-0.7,0.5-1.2,1.3-1.2H17h1.8C19.5,1036.2,20,1036.8,20,1037.4z M19,1037.5c0-0.1-0.1-0.2-0.3-0.2H17H5.3c-0.1,0-0.3,0.1-0.3,0.2
		v9.5c0,0.2,0.1,0.3,0.3,0.3H17h1h0.8c0.2,0,0.3-0.1,0.3-0.3V1037.5z M9.8,1043.4l-1.3-1.2l-2.5,2.5v1.5h12v-2l-4.3-4.8L9.8,1043.4z
		"/>
</g>
</svg>
