<?xml version="1.0" encoding="UTF-8"?>
<svg xmlns="http://www.w3.org/2000/svg" viewBox="0 0 20 20">
  <path d="M6 8V6a4 4 0 0 1 8 0v2h1.25A1.75 1.75 0 0 1 17 9.75v6.5A1.75 1.75 0 0 1 15.25 18H4.75A1.75 1.75 0 0 1 3 16.25v-6.5A1.75 1.75 0 0 1 4.75 8H6Zm2 0h4V6a2 2 0 1 0-4 0v2Zm-1.5 5.25c.65-.76 1.36-1.14 2.14-1.14.44 0 .83.08 1.17.25.24.12.49.28.76.47.24.17.44.29.6.36.19.08.39.12.62.12.35 0 .74-.22 1.17-.67l.98.94c-.64.77-1.36 1.16-2.15 1.16-.43 0-.82-.08-1.17-.25-.24-.12-.49-.28-.75-.47-.24-.17-.44-.29-.61-.36-.19-.08-.4-.12-.62-.12-.35 0-.74.22-1.17.66l-.97-.95Z"/>
</svg>
