<?xml version="1.0" encoding="utf-8"?>
<!-- Generator: Adobe Illustrator 26.1.0, SVG Export Plug-In . SVG Version: 6.00 Build 0)  -->
<svg version="1.1" id="Layer_1" xmlns="http://www.w3.org/2000/svg" xmlns:xlink="http://www.w3.org/1999/xlink" x="0px" y="0px"
	 viewBox="0 0 28 28" style="enable-background:new 0 0 28 28;" xml:space="preserve">
<g id="Layer_2_00000109029660436452263550000018187847114548896398_">
	<path d="M7,8c0.4,0.4,1,0.4,1.4,0c0,0,0,0,0,0L13,3.4V27c0,0.6,0.4,1,1,1s1-0.4,1-1V3.5L19.6,8C20,8.4,20.7,8.4,21,7.9
		c0.3-0.4,0.3-0.9,0-1.3l-6.4-6.4c-0.4-0.3-0.9-0.3-1.3,0L7,6.6C6.6,7,6.6,7.7,7,8z"/>
</g>
</svg>
